<?xml version="1.0" standalone="no"?>
<!DOCTYPE svg PUBLIC "-//W3C//DTD SVG 20010904//EN"
 "http://www.w3.org/TR/2001/REC-SVG-20010904/DTD/svg10.dtd">
<svg version="1.0" xmlns="http://www.w3.org/2000/svg"
 width="1353.000000pt" height="1353.000000pt" viewBox="0 0 1353.000000 1353.000000"
 preserveAspectRatio="xMidYMid meet">
<metadata>
Created by potrace 1.14, written by Peter Selinger 2001-2017
</metadata>
<g transform="translate(0.000000,1353.000000) scale(0.100000,-0.100000)"
fill="#000000" stroke="none">
<path d="M2880 11375 c0 -6 -18 -11 -41 -11 -48 -1 -199 -34 -199 -44 0 -4 -6
-7 -12 -7 -42 0 -186 -92 -263 -167 -81 -80 -160 -196 -171 -250 -2 -11 -9
-23 -16 -28 -7 -4 -10 -8 -6 -8 4 0 1 -18 -7 -39 -7 -22 -17 -54 -21 -73 -5
-18 -10 -1439 -11 -3158 l-3 -3126 4622 1 4623 0 2 2235 c1 1522 5 2251 12
2285 7 33 9 333 8 900 -3 919 0 870 -57 1005 -34 80 -121 209 -177 261 -80 75
-234 169 -276 169 -7 0 -18 5 -23 10 -6 6 -30 13 -55 16 -24 4 -53 9 -64 13
-11 4 -55 7 -97 6 -43 0 -78 4 -78 8 0 5 -5 5 -11 1 -18 -11 -89 -11 -89 0 0
6 -4 6 -11 -1 -6 -6 -23 -8 -45 -3 -19 4 -34 5 -34 1 0 -9 -93 -7 -108 3 -7 4
-12 3 -12 -2 0 -11 -83 -9 -92 2 -4 6 -12 6 -20 0 -15 -11 -98 -12 -115 -1 -7
5 -13 5 -13 0 0 -4 -18 -8 -40 -8 -22 0 -40 4 -40 8 0 5 -5 5 -10 2 -16 -10
-110 -12 -110 -2 0 4 -5 5 -12 1 -14 -9 -198 -12 -198 -3 0 3 -7 6 -15 6 -8 0
-15 -3 -15 -6 0 -9 -93 -6 -108 3 -7 4 -12 3 -12 -2 0 -11 -83 -9 -92 2 -4 6
-12 6 -20 0 -15 -11 -108 -11 -126 0 -7 4 -12 4 -12 -1 0 -4 -36 -8 -80 -8
-44 0 -80 3 -80 6 0 3 -7 6 -15 6 -8 0 -15 -3 -15 -6 0 -3 -36 -6 -80 -6 -44
0 -80 4 -80 8 0 5 -5 5 -12 1 -16 -10 -198 -11 -198 -1 0 5 -5 5 -11 1 -18
-11 -89 -11 -89 0 0 6 -4 6 -11 -1 -6 -6 -23 -8 -45 -3 -19 4 -34 5 -34 1 0
-9 -93 -7 -108 3 -7 4 -12 3 -12 -2 0 -11 -83 -9 -92 2 -4 6 -12 6 -20 0 -15
-11 -98 -12 -115 -1 -7 5 -13 5 -13 0 0 -4 -18 -8 -40 -8 -22 0 -40 4 -40 8 0
5 -5 5 -10 2 -16 -10 -110 -12 -110 -2 0 4 -5 5 -12 1 -16 -10 -198 -11 -198
-1 0 5 -5 5 -11 1 -18 -11 -89 -11 -89 0 0 6 -4 6 -11 -1 -6 -6 -23 -8 -45 -3
-19 4 -34 5 -34 1 0 -9 -93 -7 -108 3 -7 4 -12 3 -12 -2 0 -11 -83 -9 -92 2
-4 6 -12 6 -20 0 -15 -11 -98 -12 -115 -1 -7 5 -13 5 -13 0 0 -4 -18 -8 -40
-8 -22 0 -40 4 -40 8 0 5 -5 5 -10 2 -18 -11 -100 -12 -100 -1 0 6 -4 6 -11
-1 -6 -6 -23 -8 -45 -3 -19 4 -34 5 -34 1 0 -9 -93 -7 -108 3 -7 4 -12 3 -12
-2 0 -11 -83 -9 -92 2 -4 6 -12 6 -20 0 -15 -11 -98 -12 -115 -1 -7 5 -13 5
-13 0 0 -4 -18 -8 -40 -8 -22 0 -40 4 -40 8 0 5 -5 5 -10 2 -18 -11 -100 -12
-100 -1 0 6 -4 6 -11 -1 -6 -6 -23 -8 -45 -3 -19 4 -34 5 -34 1 0 -9 -93 -7
-108 3 -7 4 -12 3 -12 -2 0 -11 -83 -9 -92 2 -4 6 -12 6 -20 0 -15 -11 -98
-12 -115 -1 -7 5 -13 5 -13 0 0 -4 -18 -8 -40 -8 -22 0 -40 4 -40 8 0 5 -5 5
-10 2 -18 -11 -100 -12 -100 -1 0 6 -4 6 -11 -1 -6 -6 -23 -8 -45 -3 -19 4
-34 5 -34 1 0 -9 -93 -7 -108 3 -7 4 -12 3 -12 -2 0 -11 -83 -9 -92 2 -4 6
-12 6 -20 0 -15 -11 -98 -12 -115 -1 -7 5 -13 5 -13 0 0 -4 -18 -8 -40 -8 -22
0 -40 4 -40 8 0 5 -5 5 -10 2 -16 -10 -110 -12 -110 -2 0 4 -5 5 -12 1 -16
-10 -198 -11 -198 -1 0 5 -5 5 -11 1 -18 -11 -89 -11 -89 0 0 6 -4 6 -11 -1
-6 -6 -23 -8 -45 -3 -19 4 -34 5 -34 1 0 -9 -93 -7 -108 3 -7 4 -12 3 -12 -2
0 -11 -83 -9 -92 2 -4 6 -12 6 -20 0 -15 -11 -98 -12 -115 -1 -7 5 -13 5 -13
0 0 -4 -18 -8 -40 -8 -22 0 -40 4 -40 8 0 5 -5 5 -10 2 -16 -10 -110 -12 -110
-2 0 4 -5 5 -12 1 -14 -9 -198 -12 -198 -3 0 3 -7 6 -15 6 -8 0 -15 -3 -15 -6
0 -9 -93 -6 -108 3 -7 4 -12 3 -12 -2 0 -11 -83 -9 -92 2 -4 6 -12 6 -20 0
-15 -11 -108 -11 -126 0 -7 4 -12 4 -12 -1 0 -4 -36 -8 -80 -8 -44 0 -80 3
-80 6 0 3 -7 6 -15 6 -8 0 -15 -3 -15 -6 0 -3 -36 -6 -80 -6 -44 0 -80 4 -80
8 0 5 -5 5 -12 1 -18 -12 -192 -10 -200 1 -5 7 -8 7 -8 0z m7326 -3450 c0
-1270 -2 -2315 -4 -2321 -2 -8 -59 -12 -185 -13 -225 -2 -208 -2 -232 3 -11 2
-28 -1 -37 -6 -10 -5 -18 -5 -18 -1 0 6 -649 8 -855 3 -16 -1 -39 1 -50 3 -11
3 -28 0 -37 -5 -10 -5 -18 -5 -18 -1 0 6 -649 8 -855 3 -16 -1 -39 1 -50 3
-11 3 -28 0 -37 -5 -10 -5 -18 -5 -18 -1 0 6 -2266 8 -2775 3 -38 0 -955 -1
-975 -1 -8 1 -24 2 -35 5 -11 2 -28 -1 -37 -6 -10 -5 -18 -5 -18 -1 0 4 -155
7 -344 7 l-344 -2 0 2324 0 2323 3461 -2 3462 -2 1 -2310z"/>
<path d="M6778 10066 c-1 -2 -50 -6 -108 -9 -58 -4 -118 -9 -135 -12 -157 -31
-324 -87 -410 -137 -11 -7 -33 -19 -50 -28 -120 -63 -271 -186 -378 -309 -99
-114 -237 -357 -264 -466 -1 -5 -9 -35 -18 -65 -21 -71 -43 -186 -49 -261 -3
-33 -8 -64 -11 -69 -3 -6 -3 -10 2 -10 4 0 8 -39 8 -88 1 -111 15 -215 42
-312 20 -75 62 -192 73 -205 4 -5 9 -13 9 -18 2 -15 45 -102 53 -105 4 -2 8
-9 8 -16 0 -14 77 -126 94 -138 6 -4 8 -8 3 -8 -8 0 27 -41 98 -116 22 -23 50
-53 63 -67 l23 -24 -66 -99 c-37 -55 -69 -101 -71 -103 -2 -2 -22 4 -46 14
-24 9 -54 19 -68 21 -14 3 -38 9 -55 14 -102 31 -301 29 -440 -6 -228 -56
-426 -197 -556 -394 -30 -45 -54 -85 -55 -88 0 -4 -8 -25 -18 -47 -10 -22 -19
-47 -21 -55 -2 -8 -8 -27 -13 -41 -6 -14 -13 -41 -16 -60 -3 -19 -8 -45 -11
-59 -8 -33 -8 -218 0 -250 3 -14 9 -38 11 -55 24 -132 119 -312 226 -425 47
-51 154 -133 212 -164 27 -14 55 -31 62 -37 8 -6 14 -8 14 -4 0 4 11 0 25 -9
14 -9 25 -14 25 -11 0 3 10 0 22 -7 13 -6 29 -13 36 -14 12 -2 79 -18 150 -35
52 -12 271 -3 347 15 81 19 223 72 246 92 8 8 21 14 27 14 7 0 12 5 12 12 0 6
3 9 6 5 7 -7 101 62 154 113 30 29 71 78 138 165 20 25 82 160 82 176 0 11 4
19 8 19 5 0 9 6 9 13 1 6 9 46 18 87 16 71 23 241 13 285 -3 11 -8 41 -12 66
-4 26 -15 70 -26 98 -10 28 -17 51 -15 51 2 0 -14 32 -36 71 -21 40 -39 74
-39 76 0 2 -6 10 -12 17 -7 8 -20 24 -28 36 -8 12 -21 29 -29 37 -11 12 -11
19 5 49 10 19 22 34 26 34 5 0 8 6 9 13 0 6 16 32 35 57 19 25 37 53 40 62 9
26 29 28 70 8 20 -11 41 -17 45 -14 5 3 9 0 9 -6 0 -6 4 -9 9 -5 5 3 12 1 15
-4 4 -5 24 -12 46 -16 22 -4 42 -11 46 -16 3 -5 9 -7 14 -4 5 3 18 2 27 -4 10
-5 41 -12 68 -15 28 -4 76 -10 108 -15 64 -9 278 -7 342 3 44 6 116 21 155 31
14 3 32 8 40 10 8 2 15 4 15 5 0 1 7 3 15 5 74 15 369 160 378 186 2 5 10 9
18 9 8 0 14 4 14 8 0 4 14 16 31 26 89 53 307 304 369 426 l21 41 52 -29 c212
-118 217 -121 218 -155 1 -83 11 -138 37 -202 30 -74 52 -115 63 -115 5 0 9
-5 9 -11 0 -13 100 -118 113 -119 4 0 17 -9 29 -20 12 -11 28 -20 35 -20 7 0
13 -4 13 -9 0 -5 8 -11 18 -14 9 -3 42 -14 73 -26 75 -27 101 -32 192 -35 88
-4 214 17 266 44 20 10 39 18 44 19 19 2 125 77 161 115 63 63 130 175 141
233 2 10 4 18 5 18 6 0 12 63 13 130 0 84 -4 112 -16 133 -5 6 -6 12 -3 12 18
0 -98 218 -116 220 -3 0 -25 18 -47 40 -22 22 -43 40 -47 40 -4 0 -15 6 -23
14 -29 26 -115 64 -189 84 -56 15 -99 19 -180 17 -59 -1 -108 -3 -109 -5 -3
-3 -3 -3 -53 -14 -62 -14 -177 -77 -234 -128 -65 -58 -43 -62 -230 47 l-113
65 12 53 c7 28 12 67 11 85 -1 17 2 32 5 32 7 0 8 282 1 294 -3 5 -7 28 -8 50
-4 60 -28 160 -58 246 -15 41 -28 80 -29 85 -7 25 -60 133 -94 189 -79 132
-183 255 -297 351 -26 22 -53 45 -59 50 -29 25 -155 105 -164 105 -6 0 -13 3
-15 8 -1 4 -37 22 -78 40 -109 48 -109 49 -175 71 -53 17 -89 26 -200 46 -16
3 -64 8 -105 11 -41 3 -80 7 -87 9 -6 2 -13 2 -15 1z"/>
<path d="M1357 3864 c-1 -1 -20 -4 -42 -6 -22 -3 -55 -12 -72 -22 -18 -9 -34
-15 -36 -14 -10 8 -126 -91 -150 -127 -70 -109 -72 -120 -72 -350 0 -214 5
-289 23 -336 6 -15 8 -30 5 -33 -3 -3 -1 -12 6 -20 6 -8 11 -18 10 -22 -1 -5
1 -17 4 -26 9 -24 16 -46 18 -56 2 -15 84 -167 91 -170 4 -2 8 -8 8 -14 0 -18
100 -141 169 -206 36 -35 102 -87 146 -116 93 -62 216 -122 238 -118 4 1 7 -3
7 -10 0 -6 3 -9 6 -5 3 3 18 1 33 -4 14 -6 37 -12 51 -14 14 -2 36 -7 50 -10
14 -4 32 -7 40 -7 8 0 20 -4 25 -8 11 -9 9655 -11 9669 -2 5 3 25 6 45 7 39 3
195 42 221 56 8 4 42 20 75 35 63 28 182 102 224 138 126 108 235 248 297 380
77 165 102 297 103 541 1 190 -7 242 -48 323 -45 89 -165 184 -261 209 -46 11
-4352 10 -4355 -1 -2 -6 -6 -29 -9 -51 -8 -63 -44 -169 -71 -209 -13 -20 -22
-36 -19 -36 3 0 -1 -6 -8 -13 -7 -8 -27 -29 -43 -48 -62 -70 -187 -149 -261
-164 -16 -3 -42 -9 -59 -12 -40 -9 -1307 -9 -1365 -1 -107 16 -212 71 -299
157 -36 36 -75 84 -86 106 -11 22 -24 43 -28 46 -5 3 -10 15 -12 25 -2 10 -4
20 -5 22 -2 1 -3 5 -4 10 -2 4 -8 25 -14 47 -6 22 -13 57 -16 79 -3 21 -8 41
-11 45 -6 5 -4212 10 -4218 5z"/>
</g>
</svg>
